<?xml version="1.0"?>
<svg width="300" height="300" xmlns="http://www.w3.org/2000/svg" xmlns:svg="http://www.w3.org/2000/svg">
 <!-- Created with SVG-edit - https://github.com/SVG-Edit/svgedit-->
 <g class="layer">
  <title>Layer 1</title>
  <g id="svg_1" transform="matrix(0.516068 0 0 -0.475287 0.597475 377.283)">
   <g id="svg_2">
    <g clip-path="url(#clipPath18)" id="svg_3">
     <g id="svg_4" transform="translate(356.93 532.732)">
      <path d="m-322.500031,83.250008l-5.509,-9.275l12.848,-7.63l5.687,9.576c3.577,6.023 3.194,10.325 -1.149,12.903c-2.221,1.32 -4.295,1.496 -6.223,0.53c-1.926,-0.968 -3.812,-3.002 -5.654,-6.104m-23.279,1.278l11.377,-6.756l4.849,8.165c1.319,2.221 2.127,4.062 2.426,5.522c0.299,1.46 0.049,2.861 -0.752,4.203c-0.543,0.999 -1.336,1.808 -2.376,2.426c-2.222,1.319 -4.167,1.405 -5.836,0.258c-1.67,-1.147 -3.467,-3.342 -5.392,-6.583l-4.296,-7.235zm43.213,-12.222l-7.987,-13.448c-1.152,-1.942 -2.411,-3.069 -3.775,-3.382c-1.363,-0.314 -2.996,0.094 -4.897,1.223l-33.08,19.645c-1.94,1.152 -3.084,2.406 -3.429,3.762c-0.346,1.355 0.046,2.984 1.174,4.885l8.468,14.259c1.249,2.101 2.461,3.844 3.636,5.231c1.175,1.387 2.495,2.47 3.96,3.251c1.239,0.672 2.571,1.126 3.997,1.363c1.426,0.235 2.839,0.222 4.239,-0.041c1.401,-0.263 2.741,-0.775 4.022,-1.536c4.402,-2.614 6.317,-6.729 5.743,-12.344c5.276,4.69 10.576,5.455 15.898,2.294c2.462,-1.462 4.305,-3.409 5.527,-5.84c1.222,-2.432 1.668,-4.998 1.337,-7.697c-0.236,-1.674 -0.756,-3.449 -1.56,-5.327c-0.803,-1.878 -1.895,-3.978 -3.273,-6.298" fill="#e32036" fill-rule="nonzero" id="svg_5"/>
     </g>
     <g id="svg_6" transform="translate(368.469 588.283)">
      <path d="m-322.500031,83.250008l27.93,-24.649l13.907,15.758c1.108,1.257 2.265,1.951 3.469,2.084c1.203,0.133 2.267,-0.209 3.192,-1.025c0.943,-0.832 1.414,-1.837 1.412,-3.016c0,-1.179 -0.562,-2.406 -1.686,-3.68l-16.564,-18.767c-1.494,-1.694 -2.943,-2.58 -4.348,-2.659c-1.405,-0.08 -2.946,0.62 -4.62,2.099l-29.553,26.08c-1.572,1.386 -2.437,2.779 -2.598,4.179c-0.162,1.4 0.265,2.676 1.282,3.827c1.031,1.169 2.255,1.773 3.671,1.812c1.415,0.039 2.917,-0.642 4.506,-2.043" fill="#e32036" fill-rule="nonzero" id="svg_7"/>
     </g>
     <g id="svg_8" transform="translate(426.351 589.97)">
      <path d="m-322.500031,83.250008l-26.285,30.578c-1.366,1.589 -2.028,3.091 -1.987,4.507c0.04,1.417 0.634,2.618 1.782,3.604c1.182,1.017 2.477,1.447 3.885,1.292c1.408,-0.157 2.802,-1.038 4.182,-2.644l26.286,-30.578c1.381,-1.607 2.045,-3.122 1.995,-4.546c-0.049,-1.423 -0.666,-2.644 -1.847,-3.659c-1.13,-0.972 -2.407,-1.371 -3.828,-1.198c-1.423,0.173 -2.818,1.055 -4.183,2.644" fill="#e32036" fill-rule="nonzero" id="svg_9"/>
     </g>
     <g id="svg_10" transform="translate(438.058 649.681)">
      <path d="m-322.500031,83.250008l32.782,-15.25l-15.948,25.931c-1.036,1.685 -1.452,3.171 -1.247,4.459c0.206,1.287 0.924,2.31 2.152,3.066c1.269,0.78 2.529,0.974 3.781,0.583c1.251,-0.392 2.395,-1.43 3.432,-3.115l21.088,-34.288c2.354,-3.826 1.943,-6.715 -1.228,-8.666c-0.793,-0.488 -1.578,-0.812 -2.352,-0.974c-0.775,-0.163 -1.592,-0.167 -2.451,-0.012c-0.861,0.153 -1.733,0.416 -2.617,0.788c-0.885,0.372 -1.778,0.758 -2.68,1.159l-32.184,15.21l15.711,-25.545c1.024,-1.666 1.412,-3.162 1.163,-4.491c-0.25,-1.327 -0.978,-2.364 -2.187,-3.107c-1.249,-0.768 -2.516,-0.953 -3.799,-0.554c-1.284,0.399 -2.432,1.422 -3.444,3.067l-20.686,33.634c-0.878,1.428 -1.408,2.645 -1.591,3.653c-0.172,1.124 0.005,2.237 0.53,3.338c0.525,1.101 1.293,1.963 2.303,2.585c0.794,0.487 1.552,0.777 2.276,0.866c0.723,0.09 1.431,0.047 2.127,-0.127c0.694,-0.173 1.477,-0.47 2.351,-0.89c0.872,-0.419 1.779,-0.859 2.718,-1.32" fill="#e32036" fill-rule="nonzero" id="svg_11"/>
     </g>
     <g id="svg_12" transform="translate(497.175 676.915)">
      <path d="m-322.500031,83.250008l11.573,-32.752l7.406,2.617c1.625,0.573 2.883,1.067 3.773,1.481c0.891,0.413 1.768,0.97 2.63,1.671c0.865,0.699 1.546,1.495 2.046,2.388c2.291,3.921 2.245,9.26 -0.145,16.019c-1.682,4.762 -3.661,8.074 -5.936,9.936c-2.275,1.863 -4.58,2.744 -6.916,2.648c-2.335,-0.097 -4.995,-0.674 -7.98,-1.728l-6.451,-2.28zm-6.519,6.398l12.738,4.502c3.313,1.171 6.264,1.868 8.852,2.091c2.587,0.223 5.144,-0.169 7.673,-1.177c6.544,-2.525 11.369,-8.177 14.471,-16.954c1.024,-2.897 1.706,-5.631 2.046,-8.201c0.341,-2.571 0.324,-5.002 -0.051,-7.294c-0.375,-2.293 -1.118,-4.487 -2.229,-6.582c-0.884,-1.621 -1.969,-3.054 -3.257,-4.299c-1.288,-1.246 -2.766,-2.322 -4.431,-3.232c-1.666,-0.909 -3.607,-1.755 -5.823,-2.539l-12.74,-4.502c-1.776,-0.628 -3.21,-0.833 -4.3,-0.612c-1.09,0.219 -1.944,0.769 -2.564,1.649c-0.619,0.879 -1.204,2.098 -1.755,3.657l-12.505,35.385c-0.744,2.107 -0.811,3.798 -0.201,5.076c0.61,1.277 1.969,2.288 4.076,3.032" fill="#e32036" fill-rule="nonzero" id="svg_13"/>
     </g>
     <g id="svg_14" transform="translate(643.53 670.273)">
      <path d="m-322.500031,83.250008c-0.097,-3.094 -0.981,-5.849 -2.651,-8.265c-1.671,-2.416 -4.064,-4.274 -7.178,-5.573c-3.115,-1.299 -6.777,-1.884 -10.988,-1.752c-5.049,0.158 -9.184,1.243 -12.403,3.253c-2.285,1.445 -4.118,3.337 -5.5,5.674c-1.381,2.336 -2.039,4.587 -1.97,6.751c0.039,1.256 0.508,2.318 1.409,3.186c0.9,0.869 2.025,1.281 3.375,1.239c1.093,-0.034 2.007,-0.412 2.742,-1.134c0.733,-0.721 1.347,-1.776 1.839,-3.166c0.599,-1.649 1.261,-3.032 1.983,-4.148c0.722,-1.118 1.757,-2.052 3.108,-2.805c1.35,-0.753 3.141,-1.164 5.377,-1.234c3.07,-0.096 5.587,0.541 7.551,1.912c1.964,1.37 2.981,3.125 3.047,5.266c0.054,1.697 -0.422,3.092 -1.423,4.184c-1.003,1.091 -2.315,1.941 -3.937,2.551c-1.623,0.609 -3.797,1.271 -6.523,1.985c-3.649,0.976 -6.694,2.079 -9.135,3.308c-2.441,1.229 -4.359,2.861 -5.749,4.895c-1.393,2.036 -2.041,4.53 -1.95,7.484c0.089,2.815 0.935,5.292 2.538,7.431c1.605,2.138 3.878,3.75 6.824,4.833c2.944,1.083 6.383,1.564 10.315,1.44c3.14,-0.098 5.844,-0.572 8.111,-1.424c2.267,-0.851 4.136,-1.946 5.609,-3.285c1.471,-1.337 2.534,-2.728 3.187,-4.169c0.654,-1.441 0.959,-2.836 0.916,-4.184c-0.039,-1.234 -0.508,-2.331 -1.412,-3.293c-0.904,-0.961 -2.008,-1.42 -3.309,-1.38c-1.187,0.038 -2.078,0.362 -2.676,0.975c-0.599,0.612 -1.237,1.605 -1.916,2.977c-0.871,1.96 -1.94,3.501 -3.209,4.623c-1.269,1.123 -3.345,1.729 -6.23,1.82c-2.676,0.084 -4.852,-0.437 -6.528,-1.56c-1.677,-1.123 -2.542,-2.511 -2.593,-4.163c-0.033,-1.023 0.218,-1.916 0.753,-2.678c0.535,-0.762 1.284,-1.426 2.243,-1.991c0.96,-0.566 1.936,-1.016 2.927,-1.349c0.99,-0.334 2.63,-0.828 4.914,-1.482c2.865,-0.765 5.451,-1.591 7.764,-2.478c2.313,-0.888 4.271,-1.939 5.876,-3.154c1.602,-1.214 2.835,-2.725 3.699,-4.534c0.862,-1.808 1.255,-4.003 1.173,-6.586" fill="#e32036" fill-rule="nonzero" id="svg_15"/>
     </g>
     <g id="svg_16" transform="translate(672.968 669.848)">
      <path d="m-322.500031,83.250008l14.897,-3.453l-2.749,22.319l-12.148,-18.866zm16.79,-18.477l-0.93,6.81l-20.271,4.697l-3.862,-5.843c-1.508,-2.278 -2.692,-3.778 -3.551,-4.498c-0.86,-0.721 -2.037,-0.907 -3.534,-0.561c-1.271,0.294 -2.285,1.019 -3.044,2.175c-0.761,1.155 -1.003,2.322 -0.731,3.502c0.158,0.68 0.435,1.356 0.829,2.03c0.396,0.673 1.003,1.595 1.825,2.767l20.256,29.422c0.578,0.846 1.274,1.861 2.087,3.047c0.812,1.185 1.607,2.142 2.385,2.869c0.777,0.728 1.698,1.249 2.764,1.564c1.063,0.315 2.288,0.312 3.671,-0.008c1.405,-0.326 2.517,-0.865 3.335,-1.615c0.816,-0.751 1.418,-1.613 1.801,-2.586c0.385,-0.973 0.662,-1.987 0.836,-3.043c0.173,-1.056 0.38,-2.46 0.619,-4.211l5.571,-35.193c0.452,-2.685 0.55,-4.583 0.292,-5.694c-0.268,-1.156 -0.995,-2.105 -2.181,-2.845c-1.187,-0.741 -2.461,-0.953 -3.822,-0.638c-0.794,0.184 -1.442,0.484 -1.943,0.899c-0.501,0.414 -0.886,0.909 -1.16,1.487c-0.272,0.577 -0.512,1.42 -0.72,2.532c-0.209,1.111 -0.382,2.089 -0.522,2.934" fill="#e32036" fill-rule="nonzero" id="svg_17"/>
     </g>
     <g id="svg_18" transform="translate(713.536 642.938)">
      <path d="m-322.500031,83.250008l15.006,37.428c0.779,1.944 1.806,3.224 3.082,3.841c1.275,0.618 2.616,0.645 4.02,0.081c1.448,-0.58 2.426,-1.531 2.938,-2.851c0.511,-1.321 0.372,-2.964 -0.416,-4.93l-15.005,-37.427c-0.789,-1.966 -1.826,-3.256 -3.111,-3.869c-1.287,-0.612 -2.655,-0.628 -4.101,-0.048c-1.384,0.554 -2.325,1.503 -2.828,2.845c-0.502,1.342 -0.364,2.986 0.415,4.93" fill="#e32036" fill-rule="nonzero" id="svg_19"/>
     </g>
     <g id="svg_20" transform="translate(768.366 661.933)">
      <path d="m-322.500031,83.250008l-18.529,-32.317l18.233,-10.453c1.453,-0.834 2.366,-1.827 2.739,-2.98c0.371,-1.152 0.251,-2.263 -0.362,-3.333c-0.625,-1.09 -1.516,-1.754 -2.67,-1.99c-1.156,-0.237 -2.471,0.068 -3.944,0.913l-21.716,12.451c-1.958,1.122 -3.118,2.364 -3.478,3.724c-0.361,1.36 0.015,3.009 1.126,4.948l19.606,34.194c1.042,1.817 2.231,2.946 3.57,3.386c1.339,0.439 2.675,0.277 4.007,-0.487c1.354,-0.775 2.191,-1.853 2.513,-3.232c0.323,-1.379 -0.042,-2.987 -1.095,-4.824" fill="#e32036" fill-rule="nonzero" id="svg_21"/>
     </g>
     <g id="svg_22" transform="translate(781.65 605.553)">
      <path d="m-322.500031,83.250008l24.678,31.892c1.281,1.656 2.619,2.607 4.016,2.851c1.395,0.244 2.691,-0.096 3.888,-1.023c1.232,-0.954 1.914,-2.137 2.044,-3.546c0.13,-1.41 -0.452,-2.953 -1.748,-4.629l-24.678,-31.89c-1.296,-1.676 -2.647,-2.631 -4.052,-2.868c-1.404,-0.238 -2.723,0.121 -3.956,1.075c-1.178,0.912 -1.826,2.083 -1.941,3.511c-0.116,1.428 0.467,2.971 1.749,4.627" fill="#e32036" fill-rule="nonzero" id="svg_23"/>
     </g>
     <g id="svg_24" transform="translate(842.479 606.167)">
      <path d="m-322.500031,83.250008l-8.258,-35.2l22.141,20.893c1.439,1.357 2.809,2.067 4.112,2.128c1.303,0.061 2.449,-0.433 3.441,-1.483c1.021,-1.084 1.468,-2.278 1.339,-3.584c-0.128,-1.304 -0.912,-2.636 -2.351,-3.994l-29.278,-27.625c-3.266,-3.084 -6.177,-3.27 -8.734,-0.562c-0.639,0.678 -1.116,1.379 -1.433,2.105c-0.316,0.725 -0.486,1.524 -0.51,2.398c-0.025,0.873 0.055,1.779 0.24,2.721c0.183,0.942 0.38,1.895 0.588,2.861l8.34,34.605l-21.813,-20.581c-1.421,-1.342 -2.807,-2.027 -4.157,-2.054c-1.352,-0.026 -2.516,0.477 -3.489,1.51c-1.006,1.066 -1.445,2.269 -1.316,3.607c0.129,1.338 0.897,2.67 2.303,3.996l28.718,27.098c1.22,1.15 2.304,1.917 3.254,2.302c1.064,0.397 2.189,0.451 3.375,0.161c1.185,-0.29 2.185,-0.866 3,-1.73c0.638,-0.677 1.075,-1.361 1.311,-2.051c0.235,-0.69 0.337,-1.393 0.309,-2.108c-0.028,-0.715 -0.16,-1.543 -0.394,-2.483c-0.232,-0.94 -0.478,-1.917 -0.738,-2.93" fill="#e32036" fill-rule="nonzero" id="svg_25"/>
     </g>
     <g id="svg_26" transform="translate(880.927 511.175)">
      <path d="m-322.500031,83.250008l-8.425,-5.028c-1.118,-0.669 -2.078,-1.093 -2.879,-1.272c-0.801,-0.18 -1.647,-0.136 -2.539,0.132c-0.89,0.267 -1.862,0.711 -2.909,1.332c-3.026,1.799 -5.602,3.731 -7.729,5.795c-2.127,2.065 -4.055,4.546 -5.785,7.444c-2.016,3.378 -3.333,6.766 -3.953,10.163c-0.619,3.399 -0.524,6.668 0.286,9.807c0.809,3.14 2.31,6.075 4.502,8.806c2.192,2.732 5.026,5.134 8.503,7.211c3.417,2.04 6.85,3.397 10.295,4.072c3.446,0.675 6.749,0.613 9.91,-0.184c3.159,-0.798 6.11,-2.302 8.854,-4.513c2.742,-2.212 5.188,-5.117 7.336,-8.714c1.764,-2.957 2.932,-5.812 3.503,-8.56c0.571,-2.751 0.679,-5.192 0.329,-7.327c-0.354,-2.134 -0.985,-3.961 -1.894,-5.48c-0.91,-1.519 -1.883,-2.589 -2.923,-3.208c-1.119,-0.669 -2.321,-0.824 -3.605,-0.466c-1.285,0.359 -2.273,1.117 -2.965,2.277c-0.381,0.639 -0.599,1.343 -0.65,2.111c-0.052,0.769 0.072,1.514 0.373,2.236c1.062,2.124 1.806,3.829 2.233,5.114c0.426,1.284 0.554,2.75 0.384,4.396c-0.17,1.648 -0.851,3.47 -2.045,5.468c-1.228,2.059 -2.681,3.686 -4.356,4.882c-1.675,1.194 -3.531,1.964 -5.567,2.308c-2.034,0.344 -4.213,0.237 -6.535,-0.323c-2.323,-0.56 -4.673,-1.549 -7.051,-2.969c-5.157,-3.078 -8.416,-6.63 -9.78,-10.656c-1.365,-4.027 -0.783,-8.158 1.747,-12.396c1.229,-2.058 2.652,-3.83 4.272,-5.316c1.62,-1.488 3.483,-2.862 5.591,-4.124l7.135,4.259l-4.116,6.895c-0.99,1.659 -1.488,3.061 -1.495,4.209c-0.009,1.148 0.588,2.079 1.787,2.796c0.978,0.584 2,0.712 3.063,0.385c1.063,-0.328 1.958,-1.101 2.686,-2.321l6.031,-10.102c0.738,-1.239 1.256,-2.354 1.549,-3.345c0.293,-0.99 0.218,-1.977 -0.226,-2.96c-0.443,-0.982 -1.424,-1.928 -2.942,-2.834" fill="#e32036" fill-rule="nonzero" id="svg_27"/>
     </g>
     <g id="svg_28" transform="translate(479.217 256.648)">
      <path d="m-322.500031,83.250008c162.139,68.08 250.573,11.597 288.839,-7.201l0.336,0.448c-39.61,23.922 -109.366,73.773 -166.158,155.976c-53.586,77.561 -74.723,152.167 -83.817,196.717c0,0 -69.571,-188.023 -39.2,-345.94" fill="#186cb1" fill-rule="nonzero" id="svg_29"/>
     </g>
     <g id="svg_30" transform="translate(652.621 385.934)">
      <path d="m-322.500031,83.250008l36.815,-23.767c-32.155,52.893 -8.155,65.709 -8.155,65.709l73.765,47.4l-25.171,11.199l18.88,49.473l-52.014,-9.986l-6.651,26.725c-75.307,-112.858 -28.163,50.341 -28.163,50.341l-27.51,-13.426l-28.625,51.403l-28.649,-51.403l-30.774,15.361c0,0 23.3,-127.223 106.252,-219.029" fill="#e32036" fill-rule="nonzero" id="svg_31"/>
     </g>
     <g id="svg_32" transform="translate(514.52 228.39)">
      <path d="m-322.500031,83.250008c0.057,0.057 74.167,72.868 269.733,-13.329c0,0 -87.538,56 -169,56c-81.404,0 -129.929,-38.943 -129.998,-38.999l-0.002,0c0,0 0,0 0.001,-0.001l-0.001,0l0.002,-0.001c137.102,-128.89 222.676,-0.929 222.676,-0.929c-115.959,-102.262 -193.354,-2.813 -193.411,-2.741" fill="#186cb1" fill-rule="nonzero" id="svg_33"/>
     </g>
     <g id="svg_34" transform="translate(599.961 187.629)">
      <path d="m-322.500031,83.250008c-20.65,0 -37.39,14.697 -37.39,32.828c0,18.131 19.197,31.969 39.847,31.969c20.65,0 34.933,-13.838 34.933,-31.969c0,-18.131 -16.74,-32.828 -37.39,-32.828m30.568,73.339l-60.47,-1.999c-10.69,-8.332 -17.482,-20.808 -17.482,-34.751c0,-25.085 21.981,-45.42 49.097,-45.42c27.116,0 49.097,20.335 49.097,45.42c0,15.108 -7.975,28.493 -20.242,36.75" fill="#186cb1" fill-rule="nonzero" id="svg_35"/>
     </g>
     <g id="svg_36" transform="translate(594.979 200.157)">
      <path d="m-322.500031,83.250008c-16.17,0.891 -27.77,14.715 -26.751,28.521c0.803,10.877 9.364,20.71 21.209,23.578l13.256,0.222c-11.867,0 -21.209,-9.753 -21.209,-20.136c0,-5.888 2.48,-11.266 6.569,-15.39c-0.678,1.941 -1.068,4.028 -1.068,6.215c0,10.003 7.749,18.112 17.307,18.112c9.559,0 17.308,-8.109 17.308,-18.112c0,-8.264 -5.392,-14.013 -7.171,-15.775c-7.607,-7.523 -17.389,-7.324 -19.45,-7.235" fill="#186cb1" fill-rule="nonzero" id="svg_37"/>
     </g>
     <g id="svg_38" transform="translate(425.883 163.78)">
      <path d="m-322.500031,83.250008c-1.036,-1.257 -2.466,-2.362 -4.292,-3.316c-1.825,-0.955 -3.984,-1.588 -6.475,-1.905c-2.491,-0.315 -5.132,-0.063 -7.923,0.759c-2.791,0.82 -5.561,2.362 -8.31,4.626c-2.085,1.716 -3.817,3.475 -5.199,5.275c-1.382,1.801 -2.425,3.693 -3.129,5.674c-0.704,1.983 -1.079,4.137 -1.122,6.464c-0.021,2.098 0.232,4.218 0.761,6.361c0.528,2.143 1.325,4.237 2.392,6.284c1.067,2.047 2.406,4.049 4.02,6.007c2.618,3.18 5.424,5.647 8.422,7.4c2.996,1.754 6.092,2.814 9.29,3.182c3.197,0.368 6.339,0.064 9.426,-0.91c3.087,-0.974 5.942,-2.541 8.566,-4.701c3.198,-2.634 5.52,-5.616 6.968,-8.949c1.447,-3.331 2.061,-6.483 1.846,-9.456c-0.217,-2.973 -1.012,-5.295 -2.388,-6.965c-0.755,-0.917 -1.745,-1.458 -2.968,-1.628c-1.224,-0.167 -2.294,0.125 -3.21,0.88c-1.025,0.845 -1.593,1.719 -1.705,2.626c-0.113,0.906 0.005,2.213 0.351,3.915c0.571,2.817 0.551,5.291 -0.061,7.422c-0.612,2.132 -1.95,4.049 -4.016,5.751c-3.289,2.707 -6.936,3.614 -10.941,2.722c-4.007,-0.893 -7.904,-3.639 -11.691,-8.239c-2.529,-3.072 -4.203,-5.983 -5.019,-8.732c-0.818,-2.749 -0.85,-5.278 -0.096,-7.587c0.752,-2.307 2.189,-4.334 4.309,-6.08c2.299,-1.894 4.715,-2.925 7.244,-3.093c2.529,-0.169 5.108,0.519 7.737,2.064c1.198,0.76 2.32,1.262 3.363,1.503c1.043,0.242 2.121,-0.096 3.237,-1.013c0.951,-0.784 1.495,-1.79 1.631,-3.017c0.134,-1.226 -0.205,-2.335 -1.018,-3.324" fill="#e32036" fill-rule="nonzero" id="svg_39"/>
     </g>
     <g id="svg_40" transform="translate(476.856 138.723)">
      <path d="m-322.500031,83.250008l13.919,-6.333l1.725,22.421l-15.644,-16.088zm12.801,-21.435l0.436,6.859l-18.939,8.617l-4.944,-4.962c-1.928,-1.935 -3.385,-3.171 -4.371,-3.706c-0.986,-0.536 -2.177,-0.487 -3.575,0.15c-1.187,0.539 -2.038,1.451 -2.554,2.734c-0.515,1.283 -0.523,2.475 -0.022,3.576c0.29,0.636 0.694,1.245 1.215,1.826c0.52,0.582 1.299,1.366 2.335,2.351l25.681,24.831c0.734,0.714 1.618,1.572 2.648,2.573c1.031,1.002 1.999,1.781 2.906,2.341c0.906,0.559 1.912,0.888 3.019,0.985c1.104,0.098 2.304,-0.146 3.596,-0.735c1.314,-0.597 2.297,-1.346 2.95,-2.243c0.652,-0.898 1.071,-1.863 1.254,-2.891c0.184,-1.03 0.255,-2.08 0.216,-3.148c-0.039,-1.07 -0.114,-2.487 -0.226,-4.25l-1.507,-35.6c-0.087,-2.722 -0.368,-4.602 -0.84,-5.639c-0.492,-1.08 -1.392,-1.867 -2.702,-2.357c-1.311,-0.49 -2.601,-0.445 -3.872,0.132c-0.741,0.337 -1.317,0.759 -1.726,1.264c-0.409,0.506 -0.691,1.069 -0.842,1.688c-0.154,0.619 -0.223,1.494 -0.207,2.625c0.016,1.131 0.04,2.123 0.071,2.979" fill="#e32036" fill-rule="nonzero" id="svg_41"/>
     </g>
     <g id="svg_42" transform="translate(564.122 136.895)">
      <path d="m-322.500031,83.250008l14.436,-33.15l5.248,29.988c0.341,1.947 1.015,3.336 2.023,4.164c1.007,0.828 2.221,1.117 3.644,0.868c1.465,-0.256 2.539,-0.946 3.216,-2.069c0.678,-1.123 0.846,-2.658 0.505,-4.607l-6.94,-39.651c-0.775,-4.425 -2.996,-6.316 -6.664,-5.674c-0.917,0.161 -1.719,0.438 -2.407,0.829c-0.688,0.392 -1.302,0.932 -1.844,1.615c-0.541,0.687 -1.02,1.461 -1.436,2.327c-0.416,0.863 -0.828,1.745 -1.238,2.644l-14.014,32.721l-5.171,-29.54c-0.337,-1.926 -1.039,-3.304 -2.105,-4.133c-1.067,-0.828 -2.301,-1.121 -3.698,-0.876c-1.445,0.252 -2.515,0.954 -3.211,2.104c-0.698,1.15 -0.88,2.675 -0.546,4.579l6.808,38.893c0.29,1.652 0.699,2.914 1.231,3.79c0.615,0.955 1.484,1.672 2.608,2.149c1.123,0.476 2.27,0.613 3.439,0.408c0.917,-0.16 1.677,-0.448 2.277,-0.859c0.602,-0.414 1.104,-0.916 1.51,-1.505c0.403,-0.591 0.794,-1.332 1.169,-2.226c0.376,-0.892 0.763,-1.823 1.16,-2.789" fill="#e32036" fill-rule="nonzero" id="svg_43"/>
     </g>
     <g id="svg_44" transform="translate(645.578 106.223)">
      <path d="m-322.500031,83.250008l15.226,1.429l-9.657,20.307l-5.569,-21.736zm21.768,-12.229l-3.035,6.167l-20.716,-1.945l-1.82,-6.763c-0.711,-2.637 -1.36,-4.435 -1.949,-5.389c-0.589,-0.955 -1.647,-1.505 -3.176,-1.649c-1.298,-0.122 -2.49,0.246 -3.575,1.102c-1.086,0.856 -1.685,1.888 -1.799,3.093c-0.064,0.695 -0.016,1.424 0.147,2.188c0.161,0.763 0.446,1.829 0.856,3.201l9.929,34.314c0.281,0.985 0.621,2.168 1.017,3.549c0.396,1.381 0.849,2.541 1.357,3.476c0.508,0.937 1.217,1.721 2.128,2.357c0.91,0.634 2.073,1.018 3.486,1.152c1.437,0.134 2.661,-0.025 3.674,-0.48c1.013,-0.455 1.855,-1.082 2.526,-1.884c0.672,-0.803 1.256,-1.677 1.755,-2.623c0.497,-0.948 1.137,-2.214 1.917,-3.801l16.399,-31.633c1.278,-2.404 1.969,-4.175 2.076,-5.309c0.111,-1.183 -0.279,-2.313 -1.172,-3.389c-0.893,-1.077 -2.034,-1.681 -3.424,-1.812c-0.811,-0.077 -1.52,0.003 -2.127,0.239c-0.606,0.235 -1.13,0.584 -1.57,1.045c-0.442,0.46 -0.936,1.185 -1.485,2.174c-0.548,0.99 -1.022,1.862 -1.419,2.62" fill="#e32036" fill-rule="nonzero" id="svg_45"/>
     </g>
     <g id="svg_46" transform="translate(719.894 144.115)">
      <path d="m-322.500031,83.250008l12.093,-32.563l7.365,2.735c1.614,0.599 2.863,1.112 3.747,1.541c0.884,0.427 1.753,0.998 2.604,1.711c0.853,0.714 1.522,1.521 2.006,2.421c2.23,3.958 2.097,9.295 -0.399,16.016c-1.757,4.733 -3.79,8.013 -6.093,9.839c-2.304,1.825 -4.624,2.672 -6.957,2.538c-2.333,-0.134 -4.984,-0.753 -7.952,-1.855l-6.414,-2.383zm-6.62,6.294l12.666,4.704c3.294,1.224 6.233,1.967 8.816,2.231c2.583,0.264 5.147,-0.086 7.691,-1.054c6.585,-2.421 11.499,-7.995 14.739,-16.722c1.069,-2.88 1.796,-5.602 2.176,-8.167c0.382,-2.565 0.403,-4.996 0.065,-7.294c-0.338,-2.298 -1.046,-4.503 -2.123,-6.617c-0.858,-1.635 -1.921,-3.085 -3.189,-4.349c-1.268,-1.266 -2.727,-2.367 -4.378,-3.302c-1.652,-0.937 -3.578,-1.814 -5.783,-2.631l-12.665,-4.704c-1.767,-0.657 -3.199,-0.885 -4.291,-0.682c-1.093,0.203 -1.956,0.738 -2.589,1.607c-0.634,0.87 -1.239,2.08 -1.813,3.629l-13.066,35.182c-0.779,2.096 -0.873,3.786 -0.282,5.073c0.588,1.285 1.931,2.318 4.026,3.096" fill="#e32036" fill-rule="nonzero" id="svg_47"/>
     </g>
     <g id="svg_48" transform="translate(805.285 160.406)">
      <path d="m-322.500031,83.250008l12.563,8.719l-18.38,12.955l5.817,-21.674zm24.966,0.03l-5.67,3.883l-17.095,-11.86l1.734,-6.787c0.674,-2.648 0.992,-4.532 0.948,-5.653c-0.045,-1.121 -0.697,-2.119 -1.959,-2.994c-1.071,-0.744 -2.289,-1.008 -3.655,-0.795c-1.368,0.214 -2.396,0.818 -3.085,1.812c-0.398,0.574 -0.714,1.232 -0.947,1.977c-0.234,0.745 -0.508,1.815 -0.825,3.21l-8.191,34.77c-0.239,0.996 -0.524,2.193 -0.857,3.592c-0.332,1.398 -0.507,2.629 -0.523,3.694c-0.018,1.064 0.215,2.098 0.697,3.098c0.482,0.999 1.306,1.904 2.473,2.713c1.184,0.823 2.331,1.286 3.435,1.387c1.106,0.101 2.149,-0.033 3.126,-0.402c0.979,-0.369 1.918,-0.845 2.816,-1.425c0.899,-0.58 2.078,-1.369 3.537,-2.369l29.813,-19.512c2.292,-1.469 3.765,-2.671 4.415,-3.607c0.677,-0.977 0.891,-2.152 0.643,-3.529c-0.25,-1.376 -0.947,-2.462 -2.095,-3.258c-0.67,-0.465 -1.327,-0.743 -1.971,-0.836c-0.643,-0.092 -1.27,-0.047 -1.88,0.138c-0.611,0.186 -1.398,0.576 -2.36,1.167c-0.964,0.592 -1.805,1.121 -2.524,1.586" fill="#e32036" fill-rule="nonzero" id="svg_49"/>
     </g>
     <g id="svg_50" transform="translate(528.794 383.138)">
      <path d="m-322.500031,83.250008c0,-6.959 -5.642,-12.601 -12.6,-12.601c-6.959,0 -12.6,5.642 -12.6,12.601c0,6.959 5.641,12.6 12.6,12.6c6.958,0 12.6,-5.641 12.6,-12.6" fill="#ffffff" fill-rule="nonzero" id="svg_51"/>
     </g>
     <g id="svg_52" transform="translate(528.794 348.885)">
      <path d="m-322.500031,83.250008c0,-6.958 -5.642,-12.6 -12.6,-12.6c-6.959,0 -12.6,5.642 -12.6,12.6c0,6.959 5.641,12.601 12.6,12.601c6.958,0 12.6,-5.642 12.6,-12.601" fill="#ffffff" fill-rule="nonzero" id="svg_53"/>
     </g>
     <g id="svg_54" transform="translate(561.998 416.341)">
      <path d="m-322.500031,83.250008c0,-6.959 -5.641,-12.6 -12.6,-12.6c-6.959,0 -12.6,5.641 -12.6,12.6c0,6.959 5.641,12.6 12.6,12.6c6.959,0 12.6,-5.641 12.6,-12.6" fill="#ffffff" fill-rule="nonzero" id="svg_55"/>
     </g>
     <g id="svg_56" transform="translate(528.693 491.069)">
      <path d="m-322.500031,83.250008c0,-6.958 -5.642,-12.6 -12.6,-12.6c-6.959,0 -12.6,5.642 -12.6,12.6c0,6.959 5.641,12.6 12.6,12.6c6.958,0 12.6,-5.641 12.6,-12.6" fill="#ffffff" fill-rule="nonzero" id="svg_57"/>
     </g>
     <g id="svg_58" transform="translate(528.693 524.623)">
      <path d="m-322.500031,83.250008c0,-6.959 -5.642,-12.6 -12.6,-12.6c-6.959,0 -12.6,5.641 -12.6,12.6c0,6.958 5.641,12.6 12.6,12.6c6.958,0 12.6,-5.642 12.6,-12.6" fill="#ffffff" fill-rule="nonzero" id="svg_59"/>
     </g>
     <g id="svg_60" transform="translate(562.347 301.352)">
      <path d="m-322.500031,83.250008c0,-6.959 -5.641,-12.601 -12.6,-12.601c-6.959,0 -12.6,5.642 -12.6,12.601c0,6.959 5.641,12.6 12.6,12.6c6.959,0 12.6,-5.641 12.6,-12.6" fill="#ffffff" fill-rule="nonzero" id="svg_61"/>
     </g>
     <g id="svg_62" transform="translate(528.203 301.243)">
      <path d="m-322.500031,83.250008c0,-6.959 -5.641,-12.6 -12.6,-12.6c-6.959,0 -12.6,5.641 -12.6,12.6c0,6.959 5.641,12.601 12.6,12.601c6.959,0 12.6,-5.642 12.6,-12.601" fill="#ffffff" fill-rule="nonzero" id="svg_63"/>
     </g>
    </g>
   </g>
  </g>
 </g>
</svg>