<?xml version="1.0" encoding="UTF-8" standalone="no"?>
<svg
   xmlns:dc="http://purl.org/dc/elements/1.1/"
   xmlns:cc="http://creativecommons.org/ns#"
   xmlns:rdf="http://www.w3.org/1999/02/22-rdf-syntax-ns#"
   xmlns:svg="http://www.w3.org/2000/svg"
   xmlns="http://www.w3.org/2000/svg"
   viewBox="0 0 1632 1056"
   height="1056"
   width="1632"
   xml:space="preserve"
   id="svg2"
   version="1.1"><metadata
     id="metadata8"><rdf:RDF><cc:Work
         rdf:about=""><dc:format>image/svg+xml</dc:format><dc:type
           rdf:resource="http://purl.org/dc/dcmitype/StillImage" /></cc:Work></rdf:RDF></metadata><defs
     id="defs6"><clipPath
       id="clipPath18"
       clipPathUnits="userSpaceOnUse"><path
         id="path16"
         d="M 0,792 H 1224 V 0 H 0 Z" /></clipPath></defs><g
     transform="matrix(1.3333333,0,0,-1.3333333,0,1056)"
     id="g10"><g
       id="g12"><g
         clip-path="url(#clipPath18)"
         id="g14"><g
           transform="translate(356.9297,532.7324)"
           id="g20"><path
             id="path22"
             style="fill:#e32036;fill-opacity:1;fill-rule:nonzero;stroke:none"
             d="m 0,0 -5.509,-9.275 12.848,-7.63 5.687,9.576 C 16.603,-1.306 16.22,2.996 11.877,5.574 9.656,6.894 7.582,7.07 5.654,6.104 3.728,5.136 1.842,3.102 0,0 m -23.279,1.278 11.377,-6.756 4.849,8.165 c 1.319,2.221 2.127,4.062 2.426,5.522 0.299,1.46 0.049,2.861 -0.752,4.203 -0.543,0.999 -1.336,1.808 -2.376,2.426 -2.222,1.319 -4.167,1.405 -5.836,0.258 -1.67,-1.147 -3.467,-3.342 -5.392,-6.583 z m 43.213,-12.222 -7.987,-13.448 c -1.152,-1.942 -2.411,-3.069 -3.775,-3.382 -1.363,-0.314 -2.996,0.094 -4.897,1.223 l -33.08,19.645 c -1.94,1.152 -3.084,2.406 -3.429,3.762 -0.346,1.355 0.046,2.984 1.174,4.885 L -23.592,16 c 1.249,2.101 2.461,3.844 3.636,5.231 1.175,1.387 2.495,2.47 3.96,3.251 1.239,0.672 2.571,1.126 3.997,1.363 1.426,0.235 2.839,0.222 4.239,-0.041 1.401,-0.263 2.741,-0.775 4.022,-1.536 4.402,-2.614 6.317,-6.729 5.743,-12.344 5.276,4.69 10.576,5.455 15.898,2.294 2.462,-1.462 4.305,-3.409 5.527,-5.84 1.222,-2.432 1.668,-4.998 1.337,-7.697 -0.236,-1.674 -0.756,-3.449 -1.56,-5.327 -0.803,-1.878 -1.895,-3.978 -3.273,-6.298" /></g><g
           transform="translate(368.4687,588.2827)"
           id="g24"><path
             id="path26"
             style="fill:#e32036;fill-opacity:1;fill-rule:nonzero;stroke:none"
             d="m 0,0 27.93,-24.649 13.907,15.758 c 1.108,1.257 2.265,1.951 3.469,2.084 1.203,0.133 2.267,-0.209 3.192,-1.025 0.943,-0.832 1.414,-1.837 1.412,-3.016 0,-1.179 -0.562,-2.406 -1.686,-3.68 L 31.66,-33.295 c -1.494,-1.694 -2.943,-2.58 -4.348,-2.659 -1.405,-0.08 -2.946,0.62 -4.62,2.099 l -29.553,26.08 c -1.572,1.386 -2.437,2.779 -2.598,4.179 -0.162,1.4 0.265,2.676 1.282,3.827 1.031,1.169 2.255,1.773 3.671,1.812 C -3.091,2.082 -1.589,1.401 0,0" /></g><g
           transform="translate(426.3506,589.9697)"
           id="g28"><path
             id="path30"
             style="fill:#e32036;fill-opacity:1;fill-rule:nonzero;stroke:none"
             d="m 0,0 -26.285,30.578 c -1.366,1.589 -2.028,3.091 -1.987,4.507 0.04,1.417 0.634,2.618 1.782,3.604 1.182,1.017 2.477,1.447 3.885,1.292 1.408,-0.157 2.802,-1.038 4.182,-2.644 L 7.863,6.759 C 9.244,5.152 9.908,3.637 9.858,2.213 9.809,0.79 9.192,-0.431 8.011,-1.446 6.881,-2.418 5.604,-2.817 4.183,-2.644 2.76,-2.471 1.365,-1.589 0,0" /></g><g
           transform="translate(438.0576,649.6812)"
           id="g32"><path
             id="path34"
             style="fill:#e32036;fill-opacity:1;fill-rule:nonzero;stroke:none"
             d="M 0,0 32.782,-15.25 16.834,10.681 c -1.036,1.685 -1.452,3.171 -1.247,4.459 0.206,1.287 0.924,2.31 2.152,3.066 1.269,0.78 2.529,0.974 3.781,0.583 1.251,-0.392 2.395,-1.43 3.432,-3.115 L 46.04,-18.614 c 2.354,-3.826 1.943,-6.715 -1.228,-8.666 -0.793,-0.488 -1.578,-0.812 -2.352,-0.974 -0.775,-0.163 -1.592,-0.167 -2.451,-0.012 -0.861,0.153 -1.733,0.416 -2.617,0.788 -0.885,0.372 -1.778,0.758 -2.68,1.159 l -32.184,15.21 15.711,-25.545 c 1.024,-1.666 1.412,-3.162 1.163,-4.491 -0.25,-1.327 -0.978,-2.364 -2.187,-3.107 -1.249,-0.768 -2.516,-0.953 -3.799,-0.554 -1.284,0.399 -2.432,1.422 -3.444,3.067 l -20.686,33.634 c -0.878,1.428 -1.408,2.645 -1.591,3.653 -0.172,1.124 0.005,2.237 0.53,3.338 0.525,1.101 1.293,1.963 2.303,2.585 0.794,0.487 1.552,0.777 2.276,0.866 0.723,0.09 1.431,0.047 2.127,-0.127 C -4.375,2.037 -3.592,1.74 -2.718,1.32 -1.846,0.901 -0.939,0.461 0,0" /></g><g
           transform="translate(497.1748,676.915)"
           id="g36"><path
             id="path38"
             style="fill:#e32036;fill-opacity:1;fill-rule:nonzero;stroke:none"
             d="m 0,0 11.573,-32.752 7.406,2.617 c 1.625,0.573 2.883,1.067 3.773,1.481 0.891,0.413 1.768,0.97 2.63,1.671 0.865,0.699 1.546,1.495 2.046,2.388 2.291,3.921 2.245,9.26 -0.145,16.019 -1.682,4.762 -3.661,8.074 -5.936,9.936 -2.275,1.863 -4.58,2.744 -6.916,2.648 C 12.096,3.911 9.436,3.334 6.451,2.28 Z M -6.519,6.398 6.219,10.9 c 3.313,1.171 6.264,1.868 8.852,2.091 2.587,0.223 5.144,-0.169 7.673,-1.177 6.544,-2.525 11.369,-8.177 14.471,-16.954 1.024,-2.897 1.706,-5.631 2.046,-8.201 0.341,-2.571 0.324,-5.002 -0.051,-7.294 -0.375,-2.293 -1.118,-4.487 -2.229,-6.582 -0.884,-1.621 -1.969,-3.054 -3.257,-4.299 -1.288,-1.246 -2.766,-2.322 -4.431,-3.232 -1.666,-0.909 -3.607,-1.755 -5.823,-2.539 l -12.74,-4.502 c -1.776,-0.628 -3.21,-0.833 -4.3,-0.612 -1.09,0.219 -1.944,0.769 -2.564,1.649 -0.619,0.879 -1.204,2.098 -1.755,3.657 L -10.394,-1.71 c -0.744,2.107 -0.811,3.798 -0.201,5.076 0.61,1.277 1.969,2.288 4.076,3.032" /></g><g
           transform="translate(643.5303,670.2729)"
           id="g40"><path
             id="path42"
             style="fill:#e32036;fill-opacity:1;fill-rule:nonzero;stroke:none"
             d="m 0,0 c -0.097,-3.094 -0.981,-5.849 -2.651,-8.265 -1.671,-2.416 -4.064,-4.274 -7.178,-5.573 -3.115,-1.299 -6.777,-1.884 -10.988,-1.752 -5.049,0.158 -9.184,1.243 -12.403,3.253 -2.285,1.445 -4.118,3.337 -5.5,5.674 -1.381,2.336 -2.039,4.587 -1.97,6.751 0.039,1.256 0.508,2.318 1.409,3.186 0.9,0.869 2.025,1.281 3.375,1.239 1.093,-0.034 2.007,-0.412 2.742,-1.134 0.733,-0.721 1.347,-1.776 1.839,-3.166 0.599,-1.649 1.261,-3.032 1.983,-4.148 0.722,-1.118 1.757,-2.052 3.108,-2.805 1.35,-0.753 3.141,-1.164 5.377,-1.234 3.07,-0.096 5.587,0.541 7.551,1.912 1.964,1.37 2.981,3.125 3.047,5.266 0.054,1.697 -0.422,3.092 -1.423,4.184 -1.003,1.091 -2.315,1.941 -3.937,2.551 -1.623,0.609 -3.797,1.271 -6.523,1.985 -3.649,0.976 -6.694,2.079 -9.135,3.308 -2.441,1.229 -4.359,2.861 -5.749,4.895 -1.393,2.036 -2.041,4.53 -1.95,7.484 0.089,2.815 0.935,5.292 2.538,7.431 1.605,2.138 3.878,3.75 6.824,4.833 2.944,1.083 6.383,1.564 10.315,1.44 3.14,-0.098 5.844,-0.572 8.111,-1.424 2.267,-0.851 4.136,-1.946 5.609,-3.285 1.471,-1.337 2.534,-2.728 3.187,-4.169 0.654,-1.441 0.959,-2.836 0.916,-4.184 -0.039,-1.234 -0.508,-2.331 -1.412,-3.293 -0.904,-0.961 -2.008,-1.42 -3.309,-1.38 -1.187,0.038 -2.078,0.362 -2.676,0.975 -0.599,0.612 -1.237,1.605 -1.916,2.977 -0.871,1.96 -1.94,3.501 -3.209,4.623 -1.269,1.123 -3.345,1.729 -6.23,1.82 -2.676,0.084 -4.852,-0.437 -6.528,-1.56 -1.677,-1.123 -2.542,-2.511 -2.593,-4.163 -0.033,-1.023 0.218,-1.916 0.753,-2.678 0.535,-0.762 1.284,-1.426 2.243,-1.991 0.96,-0.566 1.936,-1.016 2.927,-1.349 0.99,-0.334 2.63,-0.828 4.914,-1.482 2.865,-0.765 5.451,-1.591 7.764,-2.478 2.313,-0.888 4.271,-1.939 5.876,-3.154 C -3.27,9.906 -2.037,8.395 -1.173,6.586 -0.311,4.778 0.082,2.583 0,0" /></g><g
           transform="translate(672.9678,669.8481)"
           id="g44"><path
             id="path46"
             style="fill:#e32036;fill-opacity:1;fill-rule:nonzero;stroke:none"
             d="m 0,0 14.897,-3.453 -2.749,22.319 z m 16.79,-18.477 -0.93,6.81 -20.271,4.697 -3.862,-5.843 c -1.508,-2.278 -2.692,-3.778 -3.551,-4.498 -0.86,-0.721 -2.037,-0.907 -3.534,-0.561 -1.271,0.294 -2.285,1.019 -3.044,2.175 -0.761,1.155 -1.003,2.322 -0.731,3.502 0.158,0.68 0.435,1.356 0.829,2.03 0.396,0.673 1.003,1.595 1.825,2.767 L 3.777,22.024 c 0.578,0.846 1.274,1.861 2.087,3.047 0.812,1.185 1.607,2.142 2.385,2.869 0.777,0.728 1.698,1.249 2.764,1.564 1.063,0.315 2.288,0.312 3.671,-0.008 1.405,-0.326 2.517,-0.865 3.335,-1.615 0.816,-0.751 1.418,-1.613 1.801,-2.586 0.385,-0.973 0.662,-1.987 0.836,-3.043 0.173,-1.056 0.38,-2.46 0.619,-4.211 l 5.571,-35.193 c 0.452,-2.685 0.55,-4.583 0.292,-5.694 -0.268,-1.156 -0.995,-2.105 -2.181,-2.845 -1.187,-0.741 -2.461,-0.953 -3.822,-0.638 -0.794,0.184 -1.442,0.484 -1.943,0.899 -0.501,0.414 -0.886,0.909 -1.16,1.487 -0.272,0.577 -0.512,1.42 -0.72,2.532 -0.209,1.111 -0.382,2.089 -0.522,2.934" /></g><g
           transform="translate(713.5361,642.938)"
           id="g48"><path
             id="path50"
             style="fill:#e32036;fill-opacity:1;fill-rule:nonzero;stroke:none"
             d="m 0,0 15.006,37.428 c 0.779,1.944 1.806,3.224 3.082,3.841 1.275,0.618 2.616,0.645 4.02,0.081 1.448,-0.58 2.426,-1.531 2.938,-2.851 0.511,-1.321 0.372,-2.964 -0.416,-4.93 L 9.625,-3.858 C 8.836,-5.824 7.799,-7.114 6.514,-7.727 5.227,-8.339 3.859,-8.355 2.413,-7.775 1.029,-7.221 0.088,-6.272 -0.415,-4.93 -0.917,-3.588 -0.779,-1.944 0,0" /></g><g
           transform="translate(768.3662,661.9331)"
           id="g52"><path
             id="path54"
             style="fill:#e32036;fill-opacity:1;fill-rule:nonzero;stroke:none"
             d="M 0,0 -18.529,-32.317 -0.296,-42.77 c 1.453,-0.834 2.366,-1.827 2.739,-2.98 0.371,-1.152 0.251,-2.263 -0.362,-3.333 -0.625,-1.09 -1.516,-1.754 -2.67,-1.99 -1.156,-0.237 -2.471,0.068 -3.944,0.913 l -21.716,12.451 c -1.958,1.122 -3.118,2.364 -3.478,3.724 -0.361,1.36 0.015,3.009 1.126,4.948 L -8.995,5.157 c 1.042,1.817 2.231,2.946 3.57,3.386 C -4.086,8.982 -2.75,8.82 -1.418,8.056 -0.064,7.281 0.773,6.203 1.095,4.824 1.418,3.445 1.053,1.837 0,0" /></g><g
           transform="translate(781.6504,605.5532)"
           id="g56"><path
             id="path58"
             style="fill:#e32036;fill-opacity:1;fill-rule:nonzero;stroke:none"
             d="m 0,0 24.678,31.892 c 1.281,1.656 2.619,2.607 4.016,2.851 1.395,0.244 2.691,-0.096 3.888,-1.023 1.232,-0.954 1.914,-2.137 2.044,-3.546 0.13,-1.41 -0.452,-2.953 -1.748,-4.629 L 8.2,-6.345 C 6.904,-8.021 5.553,-8.976 4.148,-9.213 2.744,-9.451 1.425,-9.092 0.192,-8.138 -0.986,-7.226 -1.634,-6.055 -1.749,-4.627 -1.865,-3.199 -1.282,-1.656 0,0" /></g><g
           transform="translate(842.4795,606.167)"
           id="g60"><path
             id="path62"
             style="fill:#e32036;fill-opacity:1;fill-rule:nonzero;stroke:none"
             d="m 0,0 -8.258,-35.2 22.141,20.893 c 1.439,1.357 2.809,2.067 4.112,2.128 1.303,0.061 2.449,-0.433 3.441,-1.483 1.021,-1.084 1.468,-2.278 1.339,-3.584 -0.128,-1.304 -0.912,-2.636 -2.351,-3.994 L -8.854,-48.865 c -3.266,-3.084 -6.177,-3.27 -8.734,-0.562 -0.639,0.678 -1.116,1.379 -1.433,2.105 -0.316,0.725 -0.486,1.524 -0.51,2.398 -0.025,0.873 0.055,1.779 0.24,2.721 0.183,0.942 0.38,1.895 0.588,2.861 l 8.34,34.605 -21.813,-20.581 c -1.421,-1.342 -2.807,-2.027 -4.157,-2.054 -1.352,-0.026 -2.516,0.477 -3.489,1.51 -1.006,1.066 -1.445,2.269 -1.316,3.607 0.129,1.338 0.897,2.67 2.303,3.996 l 28.718,27.098 c 1.22,1.15 2.304,1.917 3.254,2.302 1.064,0.397 2.189,0.451 3.375,0.161 1.185,-0.29 2.185,-0.866 3,-1.73 C 0.15,8.895 0.587,8.211 0.823,7.521 1.058,6.831 1.16,6.128 1.132,5.413 1.104,4.698 0.972,3.87 0.738,2.93 0.506,1.99 0.26,1.013 0,0" /></g><g
           transform="translate(880.9268,511.1748)"
           id="g64"><path
             id="path66"
             style="fill:#e32036;fill-opacity:1;fill-rule:nonzero;stroke:none"
             d="m 0,0 -8.425,-5.028 c -1.118,-0.669 -2.078,-1.093 -2.879,-1.272 -0.801,-0.18 -1.647,-0.136 -2.539,0.132 -0.89,0.267 -1.862,0.711 -2.909,1.332 -3.026,1.799 -5.602,3.731 -7.729,5.795 -2.127,2.065 -4.055,4.546 -5.785,7.444 -2.016,3.378 -3.333,6.766 -3.953,10.163 -0.619,3.399 -0.524,6.668 0.286,9.807 0.809,3.14 2.31,6.075 4.502,8.806 2.192,2.732 5.026,5.134 8.503,7.211 3.417,2.04 6.85,3.397 10.295,4.072 3.446,0.675 6.749,0.613 9.91,-0.184 3.159,-0.798 6.11,-2.302 8.854,-4.513 2.742,-2.212 5.188,-5.117 7.336,-8.714 1.764,-2.957 2.932,-5.812 3.503,-8.56 0.571,-2.751 0.679,-5.192 0.329,-7.327 -0.354,-2.134 -0.985,-3.961 -1.894,-5.48 -0.91,-1.519 -1.883,-2.589 -2.923,-3.208 -1.119,-0.669 -2.321,-0.824 -3.605,-0.466 -1.285,0.359 -2.273,1.117 -2.965,2.277 -0.381,0.639 -0.599,1.343 -0.65,2.111 -0.052,0.769 0.072,1.514 0.373,2.236 1.062,2.124 1.806,3.829 2.233,5.114 0.426,1.284 0.554,2.75 0.384,4.396 -0.17,1.648 -0.851,3.47 -2.045,5.468 -1.228,2.059 -2.681,3.686 -4.356,4.882 -1.675,1.194 -3.531,1.964 -5.567,2.308 -2.034,0.344 -4.213,0.237 -6.535,-0.323 -2.323,-0.56 -4.673,-1.549 -7.051,-2.969 -5.157,-3.078 -8.416,-6.63 -9.78,-10.656 -1.365,-4.027 -0.783,-8.158 1.747,-12.396 1.229,-2.058 2.652,-3.83 4.272,-5.316 1.62,-1.488 3.483,-2.862 5.591,-4.124 l 7.135,4.259 -4.116,6.895 c -0.99,1.659 -1.488,3.061 -1.495,4.209 -0.009,1.148 0.588,2.079 1.787,2.796 0.978,0.584 2,0.712 3.063,0.385 1.063,-0.328 1.958,-1.101 2.686,-2.321 L 1.619,9.139 C 2.357,7.9 2.875,6.785 3.168,5.794 3.461,4.804 3.386,3.817 2.942,2.834 2.499,1.852 1.518,0.906 0,0" /></g><g
           transform="translate(479.2173,256.6484)"
           id="g68"><path
             id="path70"
             style="fill:#186cb1;fill-opacity:1;fill-rule:nonzero;stroke:none"
             d="m 0,0 c 162.139,68.08 250.573,11.597 288.839,-7.201 l 0.336,0.448 C 249.565,17.169 179.809,67.02 123.017,149.223 69.431,226.784 48.294,301.39 39.2,345.94 39.2,345.94 -30.371,157.917 0,0" /></g><g
           transform="translate(652.6211,385.9336)"
           id="g72"><path
             id="path74"
             style="fill:#e32036;fill-opacity:1;fill-rule:nonzero;stroke:none"
             d="M 0,0 36.815,-23.767 C 4.66,29.126 28.66,41.942 28.66,41.942 l 73.765,47.4 -25.171,11.199 18.88,49.473 -52.014,-9.986 -6.651,26.725 C -37.838,53.895 9.306,217.094 9.306,217.094 l -27.51,-13.426 -28.625,51.403 -28.649,-51.403 -30.774,15.361 c 0,0 23.3,-127.223 106.252,-219.029" /></g><g
           transform="translate(514.52,228.3896)"
           id="g76"><path
             id="path78"
             style="fill:#186cb1;fill-opacity:1;fill-rule:nonzero;stroke:none"
             d="m 0,0 c 0.057,0.057 74.167,72.868 269.733,-13.329 0,0 -87.538,56 -169,56 -81.404,0 -129.929,-38.943 -129.998,-38.999 h -0.002 c 0,0 0,0 0.001,-0.001 h -0.001 L -29.265,3.67 C 107.837,-125.22 193.411,2.741 193.411,2.741 77.452,-99.521 0.057,-0.072 0,0" /></g><g
           transform="translate(599.9614,187.6289)"
           id="g80"><path
             id="path82"
             style="fill:#186cb1;fill-opacity:1;fill-rule:nonzero;stroke:none"
             d="m 0,0 c -20.65,0 -37.39,14.697 -37.39,32.828 0,18.131 19.197,31.969 39.847,31.969 20.65,0 34.933,-13.838 34.933,-31.969 C 37.39,14.697 20.65,0 0,0 m 30.568,73.339 -60.47,-1.999 c -10.69,-8.332 -17.482,-20.808 -17.482,-34.751 0,-25.085 21.981,-45.42 49.097,-45.42 27.116,0 49.097,20.335 49.097,45.42 0,15.108 -7.975,28.493 -20.242,36.75" /></g><g
           transform="translate(594.979,200.1572)"
           id="g84"><path
             id="path86"
             style="fill:#186cb1;fill-opacity:1;fill-rule:nonzero;stroke:none"
             d="m 0,0 c -16.17,0.891 -27.77,14.715 -26.751,28.521 0.803,10.877 9.364,20.71 21.209,23.578 l 13.256,0.222 c -11.867,0 -21.209,-9.753 -21.209,-20.136 0,-5.888 2.48,-11.266 6.569,-15.39 -0.678,1.941 -1.068,4.028 -1.068,6.215 0,10.003 7.749,18.112 17.307,18.112 9.559,0 17.308,-8.109 17.308,-18.112 C 26.621,14.746 21.229,8.997 19.45,7.235 11.843,-0.288 2.061,-0.089 0,0" /></g><g
           transform="translate(425.8833,163.7803)"
           id="g88"><path
             id="path90"
             style="fill:#e32036;fill-opacity:1;fill-rule:nonzero;stroke:none"
             d="m 0,0 c -1.036,-1.257 -2.466,-2.362 -4.292,-3.316 -1.825,-0.955 -3.984,-1.588 -6.475,-1.905 -2.491,-0.315 -5.132,-0.063 -7.923,0.759 -2.791,0.82 -5.561,2.362 -8.31,4.626 -2.085,1.716 -3.817,3.475 -5.199,5.275 -1.382,1.801 -2.425,3.693 -3.129,5.674 -0.704,1.983 -1.079,4.137 -1.122,6.464 -0.021,2.098 0.232,4.218 0.761,6.361 0.528,2.143 1.325,4.237 2.392,6.284 1.067,2.047 2.406,4.049 4.02,6.007 2.618,3.18 5.424,5.647 8.422,7.4 2.996,1.754 6.092,2.814 9.29,3.182 3.197,0.368 6.339,0.064 9.426,-0.91 3.087,-0.974 5.942,-2.541 8.566,-4.701 3.198,-2.634 5.52,-5.616 6.968,-8.949 1.447,-3.331 2.061,-6.483 1.846,-9.456 C 15.024,19.822 14.229,17.5 12.853,15.83 12.098,14.913 11.108,14.372 9.885,14.202 8.661,14.035 7.591,14.327 6.675,15.082 5.65,15.927 5.082,16.801 4.97,17.708 c -0.113,0.906 0.005,2.213 0.351,3.915 0.571,2.817 0.551,5.291 -0.061,7.422 -0.612,2.132 -1.95,4.049 -4.016,5.751 -3.289,2.707 -6.936,3.614 -10.941,2.722 -4.007,-0.893 -7.904,-3.639 -11.691,-8.239 -2.529,-3.072 -4.203,-5.983 -5.019,-8.732 -0.818,-2.749 -0.85,-5.278 -0.096,-7.587 0.752,-2.307 2.189,-4.334 4.309,-6.08 2.299,-1.894 4.715,-2.925 7.244,-3.093 2.529,-0.169 5.108,0.519 7.737,2.064 1.198,0.76 2.32,1.262 3.363,1.503 1.043,0.242 2.121,-0.096 3.237,-1.013 C 0.338,5.557 0.882,4.551 1.018,3.324 1.152,2.098 0.813,0.989 0,0" /></g><g
           transform="translate(476.856,138.7227)"
           id="g92"><path
             id="path94"
             style="fill:#e32036;fill-opacity:1;fill-rule:nonzero;stroke:none"
             d="m 0,0 13.919,-6.333 1.725,22.421 z m 12.801,-21.435 0.436,6.859 -18.939,8.617 -4.944,-4.962 c -1.928,-1.935 -3.385,-3.171 -4.371,-3.706 -0.986,-0.536 -2.177,-0.487 -3.575,0.15 -1.187,0.539 -2.038,1.451 -2.554,2.734 -0.515,1.283 -0.523,2.475 -0.022,3.576 0.29,0.636 0.694,1.245 1.215,1.826 0.52,0.582 1.299,1.366 2.335,2.351 L 8.063,20.841 c 0.734,0.714 1.618,1.572 2.648,2.573 1.031,1.002 1.999,1.781 2.906,2.341 0.906,0.559 1.912,0.888 3.019,0.985 1.104,0.098 2.304,-0.146 3.596,-0.735 1.314,-0.597 2.297,-1.346 2.95,-2.243 0.652,-0.898 1.071,-1.863 1.254,-2.891 0.184,-1.03 0.255,-2.08 0.216,-3.148 -0.039,-1.07 -0.114,-2.487 -0.226,-4.25 l -1.507,-35.6 c -0.087,-2.722 -0.368,-4.602 -0.84,-5.639 -0.492,-1.08 -1.392,-1.867 -2.702,-2.357 -1.311,-0.49 -2.601,-0.445 -3.872,0.132 -0.741,0.337 -1.317,0.759 -1.726,1.264 -0.409,0.506 -0.691,1.069 -0.842,1.688 -0.154,0.619 -0.223,1.494 -0.207,2.625 0.016,1.131 0.04,2.123 0.071,2.979" /></g><g
           transform="translate(564.1216,136.8945)"
           id="g96"><path
             id="path98"
             style="fill:#e32036;fill-opacity:1;fill-rule:nonzero;stroke:none"
             d="m 0,0 14.436,-33.15 5.248,29.988 c 0.341,1.947 1.015,3.336 2.023,4.164 1.007,0.828 2.221,1.117 3.644,0.868 1.465,-0.256 2.539,-0.946 3.216,-2.069 0.678,-1.123 0.846,-2.658 0.505,-4.607 l -6.94,-39.651 c -0.775,-4.425 -2.996,-6.316 -6.664,-5.674 -0.917,0.161 -1.719,0.438 -2.407,0.829 -0.688,0.392 -1.302,0.932 -1.844,1.615 -0.541,0.687 -1.02,1.461 -1.436,2.327 -0.416,0.863 -0.828,1.745 -1.238,2.644 l -14.014,32.721 -5.171,-29.54 c -0.337,-1.926 -1.039,-3.304 -2.105,-4.133 -1.067,-0.828 -2.301,-1.121 -3.698,-0.876 -1.445,0.252 -2.515,0.954 -3.211,2.104 -0.698,1.15 -0.88,2.675 -0.546,4.579 l 6.808,38.893 c 0.29,1.652 0.699,2.914 1.231,3.79 0.615,0.955 1.484,1.672 2.608,2.149 1.123,0.476 2.27,0.613 3.439,0.408 0.917,-0.16 1.677,-0.448 2.277,-0.859 0.602,-0.414 1.104,-0.916 1.51,-1.505 C -1.926,4.424 -1.535,3.683 -1.16,2.789 -0.784,1.897 -0.397,0.966 0,0" /></g><g
           transform="translate(645.5781,106.2227)"
           id="g100"><path
             id="path102"
             style="fill:#e32036;fill-opacity:1;fill-rule:nonzero;stroke:none"
             d="M 0,0 15.226,1.429 5.569,21.736 Z m 21.768,-12.229 -3.035,6.167 -20.716,-1.945 -1.82,-6.763 c -0.711,-2.637 -1.36,-4.435 -1.949,-5.389 -0.589,-0.955 -1.647,-1.505 -3.176,-1.649 -1.298,-0.122 -2.49,0.246 -3.575,1.102 -1.086,0.856 -1.685,1.888 -1.799,3.093 -0.064,0.695 -0.016,1.424 0.147,2.188 0.161,0.763 0.446,1.829 0.856,3.201 L -3.37,22.09 c 0.281,0.985 0.621,2.168 1.017,3.549 0.396,1.381 0.849,2.541 1.357,3.476 0.508,0.937 1.217,1.721 2.128,2.357 0.91,0.634 2.073,1.018 3.486,1.152 1.437,0.134 2.661,-0.025 3.674,-0.48 1.013,-0.455 1.855,-1.082 2.526,-1.884 0.672,-0.803 1.256,-1.677 1.755,-2.623 0.497,-0.948 1.137,-2.214 1.917,-3.801 L 30.889,-7.797 c 1.278,-2.404 1.969,-4.175 2.076,-5.309 0.111,-1.183 -0.279,-2.313 -1.172,-3.389 -0.893,-1.077 -2.034,-1.681 -3.424,-1.812 -0.811,-0.077 -1.52,0.003 -2.127,0.239 -0.606,0.235 -1.13,0.584 -1.57,1.045 -0.442,0.46 -0.936,1.185 -1.485,2.174 -0.548,0.99 -1.022,1.862 -1.419,2.62" /></g><g
           transform="translate(719.8945,144.1152)"
           id="g104"><path
             id="path106"
             style="fill:#e32036;fill-opacity:1;fill-rule:nonzero;stroke:none"
             d="m 0,0 12.093,-32.563 7.365,2.735 c 1.614,0.599 2.863,1.112 3.747,1.541 0.884,0.427 1.753,0.998 2.604,1.711 0.853,0.714 1.522,1.521 2.006,2.421 2.23,3.958 2.097,9.295 -0.399,16.016 -1.757,4.733 -3.79,8.013 -6.093,9.839 C 19.019,3.525 16.699,4.372 14.366,4.238 12.033,4.104 9.382,3.485 6.414,2.383 Z m -6.62,6.294 12.666,4.704 c 3.294,1.224 6.233,1.967 8.816,2.231 2.583,0.264 5.147,-0.086 7.691,-1.054 6.585,-2.421 11.499,-7.995 14.739,-16.722 1.069,-2.88 1.796,-5.602 2.176,-8.167 0.382,-2.565 0.403,-4.996 0.065,-7.294 -0.338,-2.298 -1.046,-4.503 -2.123,-6.617 -0.858,-1.635 -1.921,-3.085 -3.189,-4.349 -1.268,-1.266 -2.727,-2.367 -4.378,-3.302 -1.652,-0.937 -3.578,-1.814 -5.783,-2.631 l -12.665,-4.704 c -1.767,-0.657 -3.199,-0.885 -4.291,-0.682 -1.093,0.203 -1.956,0.738 -2.589,1.607 -0.634,0.87 -1.239,2.08 -1.813,3.629 l -13.066,35.182 c -0.779,2.096 -0.873,3.786 -0.282,5.073 0.588,1.285 1.931,2.318 4.026,3.096" /></g><g
           transform="translate(805.2852,160.4062)"
           id="g108"><path
             id="path110"
             style="fill:#e32036;fill-opacity:1;fill-rule:nonzero;stroke:none"
             d="m 0,0 12.563,8.719 -18.38,12.955 z m 24.966,0.03 -5.67,3.883 -17.095,-11.86 1.734,-6.787 c 0.674,-2.648 0.992,-4.532 0.948,-5.653 -0.045,-1.121 -0.697,-2.119 -1.959,-2.994 -1.071,-0.744 -2.289,-1.008 -3.655,-0.795 -1.368,0.214 -2.396,0.818 -3.085,1.812 -0.398,0.574 -0.714,1.232 -0.947,1.977 -0.234,0.745 -0.508,1.815 -0.825,3.21 l -8.191,34.77 c -0.239,0.996 -0.524,2.193 -0.857,3.592 -0.332,1.398 -0.507,2.629 -0.523,3.694 -0.018,1.064 0.215,2.098 0.697,3.098 0.482,0.999 1.306,1.904 2.473,2.713 1.184,0.823 2.331,1.286 3.435,1.387 1.106,0.101 2.149,-0.033 3.126,-0.402 0.979,-0.369 1.918,-0.845 2.816,-1.425 0.899,-0.58 2.078,-1.369 3.537,-2.369 L 30.738,8.369 C 33.03,6.9 34.503,5.698 35.153,4.762 35.83,3.785 36.044,2.61 35.796,1.233 c -0.25,-1.376 -0.947,-2.462 -2.095,-3.258 -0.67,-0.465 -1.327,-0.743 -1.971,-0.836 -0.643,-0.092 -1.27,-0.047 -1.88,0.138 -0.611,0.186 -1.398,0.576 -2.36,1.167 -0.964,0.592 -1.805,1.121 -2.524,1.586" /></g><g
           transform="translate(528.7939,383.1377)"
           id="g112"><path
             id="path114"
             style="fill:#ffffff;fill-opacity:1;fill-rule:nonzero;stroke:none"
             d="m 0,0 c 0,-6.959 -5.642,-12.601 -12.6,-12.601 -6.959,0 -12.6,5.642 -12.6,12.601 0,6.959 5.641,12.6 12.6,12.6 C -5.642,12.6 0,6.959 0,0" /></g><g
           transform="translate(528.7939,348.8848)"
           id="g116"><path
             id="path118"
             style="fill:#ffffff;fill-opacity:1;fill-rule:nonzero;stroke:none"
             d="m 0,0 c 0,-6.958 -5.642,-12.6 -12.6,-12.6 -6.959,0 -12.6,5.642 -12.6,12.6 0,6.959 5.641,12.601 12.6,12.601 C -5.642,12.601 0,6.959 0,0" /></g><g
           transform="translate(561.9976,416.3413)"
           id="g120"><path
             id="path122"
             style="fill:#ffffff;fill-opacity:1;fill-rule:nonzero;stroke:none"
             d="m 0,0 c 0,-6.959 -5.641,-12.6 -12.6,-12.6 -6.959,0 -12.6,5.641 -12.6,12.6 0,6.959 5.641,12.6 12.6,12.6 C -5.641,12.6 0,6.959 0,0" /></g><g
           transform="translate(528.6929,491.0688)"
           id="g124"><path
             id="path126"
             style="fill:#ffffff;fill-opacity:1;fill-rule:nonzero;stroke:none"
             d="m 0,0 c 0,-6.958 -5.642,-12.6 -12.6,-12.6 -6.959,0 -12.6,5.642 -12.6,12.6 0,6.959 5.641,12.6 12.6,12.6 C -5.642,12.6 0,6.959 0,0" /></g><g
           transform="translate(528.6929,524.6226)"
           id="g128"><path
             id="path130"
             style="fill:#ffffff;fill-opacity:1;fill-rule:nonzero;stroke:none"
             d="m 0,0 c 0,-6.959 -5.642,-12.6 -12.6,-12.6 -6.959,0 -12.6,5.641 -12.6,12.6 0,6.958 5.641,12.6 12.6,12.6 C -5.642,12.6 0,6.958 0,0" /></g><g
           transform="translate(562.3472,301.3516)"
           id="g132"><path
             id="path134"
             style="fill:#ffffff;fill-opacity:1;fill-rule:nonzero;stroke:none"
             d="m 0,0 c 0,-6.959 -5.641,-12.601 -12.6,-12.601 -6.959,0 -12.6,5.642 -12.6,12.601 0,6.959 5.641,12.6 12.6,12.6 C -5.641,12.6 0,6.959 0,0" /></g><g
           transform="translate(528.2026,301.2432)"
           id="g136"><path
             id="path138"
             style="fill:#ffffff;fill-opacity:1;fill-rule:nonzero;stroke:none"
             d="m 0,0 c 0,-6.959 -5.641,-12.6 -12.6,-12.6 -6.959,0 -12.6,5.641 -12.6,12.6 0,6.959 5.641,12.601 12.6,12.601 C -5.641,12.601 0,6.959 0,0" /></g></g></g></g></svg>